<?xml version="1.0" encoding="utf-8"?>
<svg width="119px" height="55px" viewBox="0 0 119 55" version="1.1" xmlns:xlink="http://www.w3.org/1999/xlink" xmlns="http://www.w3.org/2000/svg">
  <desc>Created with Lunacy</desc>
  <g id="Group-17" transform="translate(0.5 0.5)">
    <path d="M-5.13344e-14 1.52684e-13L118 54L118 35.0126L38.7557 2.07909e-13L-5.13344e-14 1.52684e-13Z" id="Path-2-Copy" fill="#FD314D" stroke="none" />
    <g id="PROXIMAMENTE" fill="#FCFCFC" transform="matrix(0.9063078 0.4226183 -0.4226183 0.9063078 47.9707 7.526367)">
      <path d="M10.7256 7.03271Q9.68311 7.03271 9.05591 6.3457Q8.42871 5.65869 8.42871 4.55811Q8.42871 3.37549 9.06787 2.67139Q9.70703 1.96729 10.8076 1.96729Q11.8228 1.96729 12.4431 2.65088Q13.0635 3.33447 13.0635 4.43848Q13.0635 5.63818 12.4277 6.33545Q11.792 7.03271 10.7256 7.03271ZM1.2168 6.95068L1.2168 5.09814L1.86279 5.09814Q2.67969 5.09814 3.15991 4.65381Q3.64014 4.20947 3.64014 3.51221Q3.64014 2.81494 3.20776 2.43213Q2.77539 2.04932 1.98926 2.04932L0.642578 2.04932L0.642578 6.95068L1.2168 6.95068ZM7.39307 6.95068L8.07666 6.95068L7.15723 5.47754Q7.05811 5.31689 6.97778 5.19556Q6.89746 5.07422 6.81543 4.97852Q6.7334 4.88281 6.64282 4.81274Q6.55225 4.74268 6.4292 4.68799L6.4292 4.67432Q6.67871 4.60938 6.87866 4.49146Q7.07861 4.37354 7.22046 4.20605Q7.3623 4.03857 7.43921 3.82495Q7.51611 3.61133 7.51611 3.35498Q7.51611 3.02686 7.40332 2.78247Q7.29053 2.53809 7.09058 2.37402Q6.89063 2.20996 6.6189 2.12964Q6.34717 2.04932 6.02588 2.04932L4.56299 2.04932L4.56299 6.95068L5.13721 6.95068L5.13721 4.86572L5.60889 4.86572Q5.76953 4.86572 5.89771 4.90503Q6.02588 4.94434 6.13696 5.02979Q6.24805 5.11523 6.354 5.25024Q6.45996 5.38525 6.57275 5.57666L7.39307 6.95068ZM16.7104 6.95068L17.4111 6.95068L15.8491 4.47949L17.3906 2.04932L16.731 2.04932L15.6885 3.7583Q15.6064 3.88818 15.4971 4.11377L15.4834 4.11377Q15.4082 3.94287 15.3091 3.77197L14.3076 2.04932L13.6035 2.04932L15.1143 4.48633L13.4736 6.95068L14.1777 6.95068L15.3398 5.07422Q15.4219 4.91016 15.4561 4.83154L15.4697 4.83154Q15.5313 4.98877 15.5825 5.07422L16.7104 6.95068ZM18.7305 6.95068L18.1563 6.95068L18.1563 2.04932L18.7305 2.04932L18.7305 6.95068ZM24.4453 6.95068L25.0161 6.95068L25.0161 2.04932L24.2983 2.04932L22.7637 5.45361Q22.6748 5.65186 22.5278 6.05518L22.5073 6.05518Q22.4561 5.86035 22.2817 5.46729L20.7778 2.04932L20.019 2.04932L20.019 6.95068L20.5728 6.95068L20.5728 3.66943Q20.5728 3.00293 20.5454 2.70898L20.5591 2.70898Q20.6343 3.04736 20.7061 3.21143L22.3774 6.95068L22.6577 6.95068L24.3325 3.18408Q24.3975 3.04053 24.4795 2.70898L24.4932 2.70898Q24.4453 3.27295 24.4453 3.6626L24.4453 6.95068ZM30.0986 6.95068L29.4629 6.95068L28.9434 5.57666L26.8652 5.57666L26.3765 6.95068L25.7373 6.95068L27.6172 2.04932L28.2119 2.04932L30.0986 6.95068ZM35.2461 6.95068L35.8169 6.95068L35.8169 2.04932L35.0991 2.04932L33.5645 5.45361Q33.4756 5.65186 33.3286 6.05518L33.3081 6.05518Q33.2568 5.86035 33.0825 5.46729L31.5786 2.04932L30.8198 2.04932L30.8198 6.95068L31.3735 6.95068L31.3735 3.66943Q31.3735 3.00293 31.3462 2.70898L31.3599 2.70898Q31.4351 3.04736 31.5068 3.21143L33.1782 6.95068L33.4585 6.95068L35.1333 3.18408Q35.1982 3.04053 35.2803 2.70898L35.2939 2.70898Q35.2461 3.27295 35.2461 3.6626L35.2461 6.95068ZM39.7031 6.95068L37.1055 6.95068L37.1055 2.04932L39.5938 2.04932L39.5938 2.56885L37.6797 2.56885L37.6797 4.19922L39.4502 4.19922L39.4502 4.71533L37.6797 4.71533L37.6797 6.43115L39.7031 6.43115L39.7031 6.95068ZM43.8936 6.95068L44.5977 6.95068L44.5977 2.04932L44.0234 2.04932L44.0234 5.50146Q44.0234 6.01074 44.0576 6.22266L44.0439 6.22266Q43.9995 6.13379 43.8457 5.89453L41.3916 2.04932L40.6465 2.04932L40.6465 6.95068L41.2207 6.95068L41.2207 3.40967Q41.2207 2.89356 41.1934 2.73633L41.2139 2.73633Q41.2754 2.89697 41.3711 3.04395L43.8936 6.95068ZM48.7813 2.56885L47.3662 2.56885L47.3662 6.95068L46.792 6.95068L46.792 2.56885L45.3804 2.56885L45.3804 2.04932L48.7813 2.04932L48.7813 2.56885ZM49.5503 6.95068L52.1479 6.95068L52.1479 6.43115L50.1245 6.43115L50.1245 4.71533L51.895 4.71533L51.895 4.19922L50.1245 4.19922L50.1245 2.56885L52.0386 2.56885L52.0386 2.04932L49.5503 2.04932L49.5503 6.95068ZM10.7666 2.48682Q9.99414 2.48682 9.51221 3.04395Q9.03027 3.60107 9.03027 4.50684Q9.03027 5.4126 9.50024 5.9646Q9.97021 6.5166 10.7256 6.5166Q11.5322 6.5166 11.9971 5.99023Q12.4619 5.46387 12.4619 4.51709Q12.4619 3.54639 12.0107 3.0166Q11.5596 2.48682 10.7666 2.48682ZM1.2168 4.57861L1.2168 2.56885L1.89014 2.56885Q3.03857 2.56885 3.03857 3.53955Q3.03857 4.03516 2.72583 4.30688Q2.41309 4.57861 1.81836 4.57861L1.2168 4.57861ZM5.13721 4.34619L5.13721 2.56885L5.92334 2.56885Q6.40527 2.56885 6.65991 2.78931Q6.91455 3.00977 6.91455 3.40283Q6.91455 3.62158 6.83936 3.79761Q6.76416 3.97363 6.63086 4.09497Q6.49756 4.21631 6.3147 4.28125Q6.13184 4.34619 5.9165 4.34619L5.13721 4.34619ZM28.7554 5.06055L27.9863 2.97217Q27.9487 2.86963 27.9111 2.64404L27.8975 2.64404Q27.8633 2.85254 27.8188 2.97217L27.0566 5.06055L28.7554 5.06055Z" />
    </g>
  </g>
</svg>