<?xml version="1.0" encoding="utf-8"?>
<!-- Generator: Adobe Illustrator 24.0.3, SVG Export Plug-In . SVG Version: 6.00 Build 0)  -->
<svg version="1.1" id="Capa_1" xmlns="http://www.w3.org/2000/svg" xmlns:xlink="http://www.w3.org/1999/xlink" x="0px" y="0px"
	 viewBox="0 0 322.2 58.2" style="enable-background:new 0 0 322.2 58.2;" xml:space="preserve">
<style type="text/css">
	.st0{fill:url(#SVGID_1_);}
	.st1{fill:url(#SVGID_2_);}
	.st2{fill:url(#SVGID_3_);}
	.st3{fill:url(#SVGID_4_);}
	.st4{fill:url(#SVGID_5_);}
	.st5{fill:url(#SVGID_6_);}
	.st6{fill:url(#SVGID_7_);}
	.st7{fill:url(#SVGID_8_);}
</style>
<linearGradient id="SVGID_1_" gradientUnits="userSpaceOnUse" x1="4.5323" y1="28.7832" x2="72.8868" y2="28.7832">
	<stop  offset="0" style="stop-color:#FF0028"/>
	<stop  offset="1.919290e-03" style="stop-color:#FF0028"/>
	<stop  offset="1" style="stop-color:#FF001F"/>
</linearGradient>
<path class="st0" d="M4.7,8.1c-0.2-0.5-0.2-0.9,0-1.3c0.2-0.3,0.5-0.5,1-0.5h10c0.4,0,0.8,0.1,1.2,0.4c0.4,0.3,0.6,0.6,0.7,1l7,20.5
	c0.1,0.4,0.3,0.6,0.6,0.6c0.3,0,0.5-0.2,0.6-0.6l6.8-20.4c0.1-0.4,0.4-0.7,0.7-1c0.4-0.3,0.8-0.4,1.2-0.4h8.2c0.5,0,0.9,0.1,1.2,0.4
	c0.4,0.3,0.6,0.6,0.7,1l6.8,20.5c0.1,0.4,0.3,0.6,0.6,0.6c0.3,0,0.5-0.2,0.7-0.6l7.1-20.6c0.2-0.4,0.4-0.7,0.8-1
	c0.4-0.3,0.8-0.4,1.2-0.4h9.9c0.5,0,0.8,0.2,0.9,0.5c0.2,0.3,0.2,0.7,0.1,1.1L57.9,49.8c-0.2,0.4-0.4,0.7-0.8,1
	c-0.4,0.3-0.8,0.4-1.2,0.4H48c-0.5,0-0.9-0.1-1.2-0.4c-0.4-0.3-0.6-0.6-0.7-1l-6.8-20.5c-0.1-0.4-0.3-0.6-0.6-0.6S38.1,29,38,29.4
	l-6.8,20.5c-0.1,0.4-0.4,0.7-0.7,1c-0.4,0.3-0.8,0.4-1.2,0.4h-7.9c-0.5,0-0.9-0.2-1.2-0.5c-0.4-0.3-0.6-0.6-0.7-1L4.7,8.1z"/>
<linearGradient id="SVGID_2_" gradientUnits="userSpaceOnUse" x1="78.5816" y1="28.8139" x2="90.7418" y2="28.8139">
	<stop  offset="0" style="stop-color:#FF0028"/>
	<stop  offset="1.919290e-03" style="stop-color:#FF0028"/>
	<stop  offset="1" style="stop-color:#FF001F"/>
</linearGradient>
<path class="st1" d="M89.3,51.3H80c-0.4,0-0.8-0.1-1.1-0.4c-0.3-0.3-0.4-0.6-0.4-1V7.8c0-0.4,0.1-0.8,0.4-1c0.3-0.3,0.6-0.4,1.1-0.4
	h9.2c0.4,0,0.8,0.1,1,0.4c0.3,0.3,0.4,0.6,0.4,1v41.9c0,0.4-0.1,0.8-0.4,1C90,51.1,89.7,51.3,89.3,51.3"/>
<linearGradient id="SVGID_3_" gradientUnits="userSpaceOnUse" x1="96.9369" y1="28.875" x2="134.4118" y2="28.875">
	<stop  offset="0" style="stop-color:#FF0028"/>
	<stop  offset="1.919290e-03" style="stop-color:#FF0028"/>
	<stop  offset="1" style="stop-color:#FF001F"/>
</linearGradient>
<path class="st2" d="M104.1,35.8c2.2,1.4,4.4,2.6,6.6,3.4c2.2,0.8,4.2,1.2,6.1,1.2c1.8,0,3.2-0.3,4.1-0.8c0.9-0.5,1.4-1.3,1.4-2.3
	c0-0.5-0.2-1-0.6-1.3c-0.4-0.3-1-0.6-1.6-0.8c-0.7-0.2-1.5-0.4-2.4-0.5c-0.9-0.1-1.8-0.3-2.8-0.5c-0.9-0.2-2-0.4-3.2-0.6
	c-1.2-0.2-2.4-0.6-3.7-1c-1.3-0.4-2.5-1-3.8-1.6c-1.3-0.7-2.4-1.5-3.3-2.5c-1-1-1.8-2.2-2.4-3.7c-0.6-1.4-0.9-3.1-0.9-5
	c0-2.8,0.6-5.2,1.7-7c1.1-1.8,2.5-3.3,4.2-4.4c1.7-1.1,3.6-1.8,5.7-2.3c2.1-0.4,4.1-0.6,6.1-0.6c3.4,0,6.5,0.5,9.2,1.5
	c2.7,1,5.3,2.5,7.8,4.4c0.3,0.3,0.5,0.6,0.6,1c0,0.4-0.1,0.8-0.3,1.1l-4.8,6.8c-0.2,0.3-0.6,0.5-1,0.6c-0.4,0.1-0.8,0-1.1-0.2
	c-2.1-1.3-4-2.2-5.8-2.8c-1.8-0.6-3.5-0.8-5-0.8c-0.5,0-1,0-1.6,0c-0.6,0-1.2,0.1-1.7,0.2c-0.5,0.1-1,0.4-1.3,0.7
	c-0.3,0.3-0.5,0.8-0.5,1.4c0,0.6,0.4,1.1,1.3,1.5c0.9,0.5,1.8,0.8,2.9,1.2c1.1,0.3,2.2,0.6,3.2,0.8c1,0.2,1.7,0.3,2,0.3
	c1.5,0.3,3.1,0.7,4.9,1.3c1.8,0.6,3.4,1.4,4.9,2.5c1.5,1.1,2.8,2.5,3.9,4.2c1,1.7,1.6,3.9,1.6,6.5c0,2.5-0.4,4.6-1.3,6.4
	c-0.9,1.8-2.1,3.2-3.6,4.4c-1.5,1.1-3.4,2-5.5,2.5c-2.2,0.6-4.5,0.8-7.2,0.8c-2.1,0-4.1-0.2-6-0.5c-1.8-0.3-3.6-0.8-5.2-1.4
	c-1.6-0.6-3.1-1.3-4.5-2.2c-1.4-0.8-2.6-1.7-3.8-2.7c-0.3-0.2-0.5-0.6-0.6-1c0-0.4,0.1-0.8,0.3-1.1l4.7-6.8c0.2-0.3,0.6-0.5,1-0.6
	C103.4,35.6,103.7,35.6,104.1,35.8"/>
<linearGradient id="SVGID_4_" gradientUnits="userSpaceOnUse" x1="140.9213" y1="28.7829" x2="181.9769" y2="28.7829">
	<stop  offset="0" style="stop-color:#FF0028"/>
	<stop  offset="1.919290e-03" style="stop-color:#FF0028"/>
	<stop  offset="1" style="stop-color:#FF001F"/>
</linearGradient>
<path class="st3" d="M166,50.2l-11.9-13.3c-0.3-0.3-0.5-0.4-0.7-0.4c-0.2,0.1-0.3,0.3-0.3,0.7v12.6c0,0.4-0.1,0.8-0.4,1
	c-0.3,0.3-0.6,0.4-1,0.4h-9.2c-0.5,0-0.8-0.1-1.1-0.4c-0.3-0.3-0.4-0.6-0.4-1v-42c0-0.4,0.1-0.8,0.4-1c0.3-0.3,0.6-0.4,1.1-0.4h9.2
	c0.4,0,0.8,0.1,1,0.4c0.3,0.3,0.4,0.6,0.4,1v14.1c0,0.4,0.1,0.6,0.2,0.7c0.2,0.1,0.4-0.1,0.6-0.4L165,7.5c0.2-0.3,0.6-0.6,1-0.8
	c0.4-0.2,0.9-0.3,1.4-0.3h11.7c0.4,0,0.7,0.2,0.9,0.6c0.1,0.4,0.1,0.7-0.2,1.1l-16.2,20.2c-0.2,0.3-0.4,0.7-0.3,1.1
	c0,0.4,0.2,0.8,0.5,1.1c1.4,1.5,2.9,3.1,4.4,4.7c1.6,1.6,3.1,3.3,4.6,4.9s3.1,3.3,4.5,4.9c1.5,1.6,2.9,3.1,4.3,4.5
	c0.3,0.3,0.4,0.7,0.3,1.1c-0.1,0.4-0.3,0.6-0.8,0.6h-12.7c-0.5,0-0.9-0.1-1.4-0.3C166.6,50.8,166.2,50.5,166,50.2"/>
<linearGradient id="SVGID_5_" gradientUnits="userSpaceOnUse" x1="186.3704" y1="28.8139" x2="198.5322" y2="28.8139">
	<stop  offset="0" style="stop-color:#FF0028"/>
	<stop  offset="1.919290e-03" style="stop-color:#FF0028"/>
	<stop  offset="1" style="stop-color:#FF001F"/>
</linearGradient>
<path class="st4" d="M197.1,51.3h-9.2c-0.4,0-0.8-0.1-1.1-0.4c-0.3-0.3-0.4-0.6-0.4-1V7.8c0-0.4,0.1-0.8,0.4-1
	c0.3-0.3,0.6-0.4,1.1-0.4h9.2c0.4,0,0.8,0.1,1,0.4c0.3,0.3,0.4,0.6,0.4,1v41.9c0,0.4-0.1,0.8-0.4,1
	C197.8,51.1,197.5,51.3,197.1,51.3"/>
<linearGradient id="SVGID_6_" gradientUnits="userSpaceOnUse" x1="211.1008" y1="29.0151" x2="248.0137" y2="29.0151">
	<stop  offset="0" style="stop-color:#FF0028"/>
	<stop  offset="1.919290e-03" style="stop-color:#FF0028"/>
	<stop  offset="1" style="stop-color:#FF001F"/>
</linearGradient>
<path class="st5" d="M230.1,39.4h-5.4c-0.4,0-0.8,0.1-1,0.4c-0.3,0.3-0.4,0.6-0.4,1V50c0,0.4-0.1,0.8-0.4,1c-0.3,0.3-0.6,0.4-1,0.4
	h-9.2c-0.4,0-0.8-0.1-1-0.4c-0.3-0.3-0.4-0.6-0.4-1V8c0-0.4,0.1-0.8,0.4-1c0.3-0.3,0.6-0.4,1-0.4h18.8c2.3,0,4.5,0.4,6.5,1.3
	c2,0.9,3.8,2,5.3,3.6c1.5,1.5,2.7,3.3,3.6,5.3c0.9,2,1.3,4.2,1.3,6.4c0,2.3-0.4,4.4-1.1,6.4c-0.7,2-1.9,3.7-3.4,5.2
	c-1.5,1.5-3.4,2.6-5.6,3.4C235.7,39,233.1,39.4,230.1,39.4 M230.5,17.8h-5.8c-0.4,0-0.8,0.1-1.1,0.4c-0.3,0.3-0.4,0.6-0.4,1v7.2
	c0,0.4,0.1,0.8,0.4,1c0.3,0.3,0.6,0.4,1.1,0.4h6.6c1.6,0,2.7-0.5,3.4-1.5c0.7-1,1.1-2.1,1.1-3.4c0-0.7-0.1-1.3-0.3-1.9
	c-0.2-0.6-0.6-1.2-1-1.7c-0.5-0.5-1-0.9-1.7-1.2C232.2,18,231.4,17.8,230.5,17.8"/>
<linearGradient id="SVGID_7_" gradientUnits="userSpaceOnUse" x1="253.2954" y1="29.0459" x2="265.4572" y2="29.0459">
	<stop  offset="0" style="stop-color:#FF0028"/>
	<stop  offset="1.919290e-03" style="stop-color:#FF0028"/>
	<stop  offset="1" style="stop-color:#FF001F"/>
</linearGradient>
<path class="st6" d="M264,51.5h-9.2c-0.4,0-0.8-0.1-1.1-0.4c-0.3-0.3-0.4-0.6-0.4-1V8.1c0-0.4,0.1-0.8,0.4-1
	c0.3-0.3,0.6-0.4,1.1-0.4h9.2c0.4,0,0.8,0.1,1,0.4c0.3,0.3,0.4,0.6,0.4,1V50c0,0.4-0.1,0.8-0.4,1C264.7,51.4,264.4,51.5,264,51.5"/>
<linearGradient id="SVGID_8_" gradientUnits="userSpaceOnUse" x1="269.2037" y1="29.0462" x2="316.2196" y2="29.0462">
	<stop  offset="0" style="stop-color:#FF0028"/>
	<stop  offset="1.919290e-03" style="stop-color:#FF0028"/>
	<stop  offset="1" style="stop-color:#FF001F"/>
</linearGradient>
<path class="st7" d="M284.9,28.1L269.4,8.3c-0.2-0.3-0.3-0.7-0.2-1.1c0.1-0.4,0.4-0.6,0.8-0.6h11.8c0.4,0,0.8,0.1,1.3,0.4
	c0.4,0.2,0.8,0.5,1,0.9l7.7,11.2c0.2,0.3,0.5,0.5,0.9,0.5c0.3,0,0.6-0.2,0.9-0.5c1.3-1.8,2.6-3.7,3.9-5.7c1.3-1.9,2.5-3.8,3.8-5.6
	c0.2-0.3,0.6-0.6,1-0.8c0.5-0.2,0.9-0.3,1.3-0.3h11.7c0.5,0,0.8,0.2,0.9,0.6c0.1,0.4,0,0.8-0.2,1.1l-15.3,19.8
	c-0.2,0.3-0.4,0.7-0.4,1.2c0,0.5,0.1,0.8,0.4,1.2l15,19.3c0.2,0.3,0.3,0.7,0.2,1.1c-0.1,0.4-0.4,0.6-0.8,0.6h-11.7
	c-0.4,0-0.8-0.1-1.3-0.4c-0.5-0.2-0.8-0.5-1-0.9l-7.4-10.7c-0.2-0.3-0.5-0.5-0.9-0.5c-0.3,0-0.6,0.2-0.9,0.5l-7.4,10.7
	c-0.2,0.3-0.6,0.6-1,0.9c-0.5,0.2-0.9,0.4-1.3,0.4h-11.7c-0.4,0-0.7-0.2-0.8-0.6c-0.1-0.4-0.1-0.8,0.2-1.1l15-19.3
	c0.2-0.3,0.4-0.7,0.4-1.2C285.2,28.8,285.1,28.4,284.9,28.1"/>
</svg>
