<?xml version="1.0" encoding="UTF-8"?>
<svg width="127px" height="85px" viewBox="0 0 127 85" version="1.1" xmlns="http://www.w3.org/2000/svg" xmlns:xlink="http://www.w3.org/1999/xlink">
    <title>Fill 22 Copy</title>
    <g id="Page-1" stroke="none" stroke-width="1" fill="none" fill-rule="evenodd">
        <g id="Desktop-HD" transform="translate(-118.000000, -3160.000000)" fill="#F4D749">
            <path d="M147.340223,3260.25184 L147.340223,3192.85982 C147.340223,3187.41533 151.789417,3183.00189 157.278013,3183.00189 L225.204097,3183.00189 C227.961288,3183.00189 230.176959,3180.76861 230.14168,3178.03751 C230.121418,3176.61293 230.103566,3175.19032 230.087697,3173.76574 C230.057943,3171.0799 227.860125,3168.91942 225.152523,3168.91942 L157.278013,3168.91942 C143.948282,3168.91942 133.14168,3179.63721 133.14168,3192.85982 L133.14168,3260.21052 C133.14168,3262.78027 135.234368,3264.86008 137.826921,3264.87779 C139.407843,3264.88763 140.992732,3264.9014 142.575638,3264.91942 C145.197945,3264.94862 147.340223,3262.85111 147.340223,3260.25184" id="Fill-22-Copy" transform="translate(181.641680, 3216.919418) rotate(25.000000) translate(-181.641680, -3216.919418) "></path>
        </g>
    </g>
</svg>