<?xml version="1.0" encoding="UTF-8"?>
<svg width="158px" height="256px" viewBox="0 0 158 256" version="1.1" xmlns="http://www.w3.org/2000/svg" xmlns:xlink="http://www.w3.org/1999/xlink">
    <title>Fill 17 Copy</title>
    <g id="Page-1" stroke="none" stroke-width="1" fill="none" fill-rule="evenodd">
        <g id="Desktop-HD" transform="translate(-1282.000000, -3198.000000)" fill="#A6FBFD">
            <path d="M1336.49951,3241.94765 C1330.70926,3241.94765 1326,3246.65884 1326,3252.44703 L1326,3399.44629 C1326,3405.23449 1330.70926,3409.94765 1336.49951,3409.94765 L1483.50049,3409.94765 C1489.28876,3409.94765 1494,3405.23449 1494,3399.44629 L1494,3252.44703 C1494,3246.65884 1489.28876,3241.94765 1483.50049,3241.94765 L1336.49951,3241.94765 Z M1483.49955,3424.94765 L1336.50045,3424.94765 C1322.44003,3424.94765 1311,3413.50762 1311,3399.4472 L1311,3252.4481 C1311,3238.38768 1322.44003,3226.94765 1336.50045,3226.94765 L1483.49955,3226.94765 C1497.55997,3226.94765 1509,3238.38768 1509,3252.4481 L1509,3399.4472 C1509,3413.50762 1497.55997,3424.94765 1483.49955,3424.94765 L1483.49955,3424.94765 Z" id="Fill-17-Copy" transform="translate(1410.000000, 3325.947651) rotate(-33.000000) translate(-1410.000000, -3325.947651) "></path>
        </g>
    </g>
</svg>