<?xml version="1.0" encoding="utf-8"?>
<svg width="208px" height="269px" viewBox="0 0 208 269" version="1.1" xmlns:xlink="http://www.w3.org/1999/xlink" xmlns="http://www.w3.org/2000/svg">
  <desc>Created with Lunacy</desc>
  <defs>
    <path d="M69.8294 0C108.329 0 139.67 31.2279 139.67 69.6206C139.67 108 108.345 139.232 69.8294 139.232C31.3294 139.232 0 108.005 0 69.6206M69.8294 14.5361C39.3765 14.5361 14.5775 39.2445 14.5775 69.6206C14.5775 99.9835 39.3604 124.698 69.8294 124.698C100.319 124.698 125.102 99.9893 125.102 69.6206" transform="translate(0.08020833 0.671567)" id="path_1" />
    <clipPath id="mask_1">
      <use xlink:href="#path_1" />
    </clipPath>
  </defs>
  <g id="Group-18">
    <g id="Group" transform="translate(0 17.11584)">
      <path d="M69.4942 0C107.809 0 139 31.1757 139 69.5014C139 107.818 107.825 139 69.4942 139C31.179 139 0 107.824 0 69.5014C0 31.1757 31.179 0 69.4942 0ZM14.5075 69.5014C14.5075 99.8166 39.1715 124.488 69.4942 124.488C99.8372 124.488 124.501 99.821 124.501 69.5014C124.501 39.1834 99.8372 14.5118 69.4942 14.5118C39.1875 14.5118 14.5075 39.1776 14.5075 69.5014Z" id="Fill-1" fill="#3241F0" fill-rule="evenodd" stroke="none" />
      <path d="M0 46.0087C0 20.6386 20.6429 0 45.9971 0C71.373 0 92.0102 20.6429 92 46.0087C92 71.3629 71.357 92 45.9971 92C20.6429 92 0 71.373 0 46.0087ZM14.5363 46.0131C14.5363 63.3621 28.6481 77.4899 45.9971 77.4899C63.3665 77.4899 77.4783 63.3621 77.4681 46.0131C77.4681 28.6626 63.3621 14.5406 45.9971 14.5406C28.6524 14.5406 14.5363 28.6524 14.5363 46.0131Z" transform="translate(24 24)" id="Fill-3" fill="#3241F0" fill-rule="evenodd" stroke="none" />
      <g id="Group-10" transform="translate(0 69)">
        <path d="M69.8294 0C108.329 0 139.67 31.2279 139.67 69.6206C139.67 108 108.345 139.232 69.8294 139.232C31.3294 139.232 0 108.005 0 69.6206M69.8294 14.5361C39.3765 14.5361 14.5775 39.2445 14.5775 69.6206C14.5775 99.9835 39.3604 124.698 69.8294 124.698C100.319 124.698 125.102 99.9893 125.102 69.6206" transform="translate(0.08020833 0.671567)" id="Clip-9" fill="none" stroke="none" />
        <g clip-path="url(#mask_1)">
          <path d="M69.8294 0C108.329 0 139.67 31.2279 139.67 69.6206C139.67 108 108.345 139.232 69.8294 139.232C31.3294 139.232 0 108.005 0 69.6206C0 31.2279 31.3294 0 69.8294 0ZM14.5775 69.6206C14.5775 99.9835 39.3604 124.698 69.8294 124.698C100.319 124.698 125.102 99.9893 125.102 69.6206C125.102 39.2489 100.319 14.5361 69.8294 14.5361C39.3765 14.5361 14.5775 39.2445 14.5775 69.6206Z" transform="translate(0.08020833 0.671567)" id="Fill-8" fill="none" fill-rule="evenodd" stroke="none" />
        </g>
      </g>
    </g>
    <path d="M0 0.000611253L0 296.905C0 307.329 1.62126 315.762 3.62825 315.835C4.85457 315.877 6.08243 315.933 7.30721 315.999C9.34032 316.114 11 307.618 11 297.072L11 0.178475C7.3318 0.0459492 3.66667 -0.00636381 0 0.000611253" transform="matrix(0.8290376 0.5591929 -0.5591929 0.8290376 198.2928 0)" id="Fill-28" fill="#F4D749" stroke="none" />
  </g>
</svg>