<?xml version="1.0" encoding="utf-8"?>
<svg width="168px" height="146px" viewBox="0 0 168 146" version="1.1" xmlns:xlink="http://www.w3.org/1999/xlink" xmlns="http://www.w3.org/2000/svg">
  <desc>Created with Lunacy</desc>
  <defs>
    <path d="M0 0L167.937 4.92338L167.937 145.912L5.68183 145.912L0 0Z" id="path_1" />
    <path d="M0 0L35.387 0L35.387 42.1181L0 42.1181L0 0Z" id="path_2" />
    <clipPath id="mask_1">
      <use xlink:href="#path_1" />
    </clipPath>
    <clipPath id="mask_2">
      <use xlink:href="#path_2" />
    </clipPath>
  </defs>
  <g id="Group-17">
    <g id="Group-16">
      <path d="M0 0L167.937 4.92338L167.937 145.912L5.68183 145.912L0 0Z" id="Clip-15" fill="none" stroke="none" />
      <g clip-path="url(#mask_1)">
        <path d="M161.992 288.535L161.981 288.241L161.981 2.706C161.981 1.214 160.767 0 159.274 0L155.16 0C153.668 0 152.454 1.214 152.454 2.706L151.672 301.556L151.655 301.737C150.67 312.105 147.52 321.951 142.294 331C129.328 353.454 105.223 367.403 79.388 367.403C69.425 367.403 59.749 365.401 50.631 361.45C32.266 353.494 17.851 338.143 11.079 319.337C10.532 317.816 9.17797 316.775 7.63097 316.686C5.78697 316.58 3.94397 316.464 2.10197 316.337C2.05397 316.334 2.00497 316.332 1.95797 316.332C1.11597 316.332 0.607968 316.85 0.423968 317.083C0.190968 317.374 -0.163032 317.988 0.0839682 318.803C5.13097 335.464 15.615 350.453 29.604 361.009C44.061 371.918 61.276 377.684 79.388 377.684C125.08 377.684 162.255 340.51 162.255 294.817C162.255 292.917 162.171 290.922 161.992 288.535" transform="translate(5.681885 -231.7721)" id="Fill-14" fill="#E6333C" stroke="none" />
      </g>
    </g>
    <g id="Group-7" transform="translate(91.90295 64.48999)">
      <path d="M0 0L35.387 0L35.387 42.1181L0 42.1181L0 0Z" id="Clip-6" fill="none" stroke="none" />
      <g clip-path="url(#mask_2)">
        <path d="M0 31.651C0 14.198 14.201 0 31.643 0C49.1 0 63.297 14.202 63.29 31.651C63.29 49.093 49.089 63.29 31.643 63.29C14.201 63.29 0 49.1 0 31.651ZM10 31.654C10 43.589 19.708 53.308 31.643 53.308C43.592 53.308 53.3 43.589 53.293 31.654C53.293 19.719 43.589 10.004 31.643 10.004C19.711 10.004 10 19.712 10 31.654Z" transform="translate(-27.90295 -21.17188)" id="Fill-5" fill="#3241F0" fill-rule="evenodd" stroke="none" />
      </g>
    </g>
  </g>
</svg>