<?xml version="1.0" encoding="utf-8"?>
<svg width="15px" height="26px" viewBox="0 0 15 26" version="1.1" xmlns:xlink="http://www.w3.org/1999/xlink" xmlns="http://www.w3.org/2000/svg">
  <desc>Created with Lunacy</desc>
  <g id="facebook">
    <path d="M5.03307 26L9.26526 26C9.97217 26 10.5474 25.4343 10.5474 24.7388L10.5474 15.3472L13.5654 15.3472C14.2723 15.3472 14.8474 14.7815 14.8474 14.0864L14.849 10.0622C14.849 9.60539 14.5961 9.18268 14.1895 8.95912C14.0009 8.85558 13.7816 8.80063 13.5551 8.80063L10.5474 8.80063L10.5474 7.20856C10.5474 6.68983 10.6182 6.50198 10.6777 6.43553C10.7138 6.39546 10.8825 6.26474 11.5453 6.26474L13.7184 6.26395C14.4252 6.26395 15 5.69821 15 5.00275L15 1.26636C15 0.572083 14.426 0.00634766 13.7203 0.00515745L10.4926 0C8.50048 0 6.807 0.646469 5.59521 1.86978C4.38886 3.08754 3.75111 4.78752 3.75111 6.78564L3.75111 8.80083L1.28196 8.80083C0.575046 8.80083 0 9.36656 0 10.062L0 14.0862C0 14.7815 0.575046 15.3474 1.28196 15.3474L3.75111 15.3474L3.75111 24.7388C3.75111 25.4343 4.32616 26 5.03307 26ZM8.9979 24.4758L5.30043 24.4758L5.30043 14.6651C5.30043 14.2007 4.91653 13.823 4.44471 13.823L1.54932 13.823L1.54932 10.3251L4.44471 10.3251C4.91653 10.3251 5.30043 9.94717 5.30043 9.483L5.30043 6.78564C5.30043 3.54041 7.2899 1.52423 10.4914 1.52423L13.4507 1.52899L13.4507 4.73972L11.5449 4.74051C10.9384 4.74051 10.0684 4.81152 9.51629 5.42685C9.0594 5.93585 8.9979 6.61307 8.9979 7.20856L8.9979 9.483C8.9979 9.94737 9.38181 10.3251 9.85362 10.3251L13.2995 10.3251L13.298 13.823L9.85382 13.823C9.38201 13.823 8.9979 14.2007 8.9979 14.6651L8.9979 24.4758Z" id="Shape" fill="#3241F0" fill-rule="evenodd" stroke="none" />
  </g>
</svg>