<?xml version="1.0" encoding="utf-8"?>
<svg width="26px" height="26px" viewBox="0 0 26 26" version="1.1" xmlns:xlink="http://www.w3.org/1999/xlink" xmlns="http://www.w3.org/2000/svg">
  <desc>Created with Lunacy</desc>
  <g id="instagram">
    <path d="M7.55259 0L18.4475 0C22.6119 0 26 3.38807 26 7.55259L26 18.4475C26 22.6119 22.6119 26 18.4474 26L7.55259 26C3.38807 26 0 22.6119 0 18.4474L0 7.55259C0 3.38807 3.38807 0 7.55259 0ZM18.4475 23.9688C21.4919 23.9688 23.9688 21.4919 23.9688 18.4474L23.9688 7.55259C23.9688 4.50811 21.4919 2.03125 18.4474 2.03125L7.55259 2.03125C4.50811 2.03125 2.03125 4.50811 2.03125 7.55259L2.03125 18.4475C2.03125 21.4919 4.50811 23.9688 7.55259 23.9688L18.4475 23.9688Z" id="Shape" fill="#313FEB" fill-rule="evenodd" stroke="none" />
    <path d="M0 7C0 3.14016 3.14016 0 7 0C10.8598 0 14 3.14016 14 7C14 10.8598 10.8598 14 7 14C3.14016 14 0 10.8598 0 7ZM2.02899 7C2.02899 9.74101 4.25899 11.971 7 11.971C9.74101 11.971 11.971 9.74101 11.971 7C11.971 4.25899 9.74101 2.02899 7 2.02899C4.25899 2.02899 2.02899 4.25899 2.02899 7Z" transform="translate(6 6)" id="Shape" fill="#313FEB" fill-rule="evenodd" stroke="none" />
    <path d="M1 2C1.55228 2 2 1.55228 2 1C2 0.447715 1.55228 0 1 0C0.447715 0 0 0.447715 0 1C0 1.55228 0.447715 2 1 2Z" transform="translate(19 5)" id="Oval" fill="#313FEB" stroke="none" />
  </g>
</svg>