<?xml version="1.0" encoding="UTF-8"?>
<svg width="99px" height="226px" viewBox="0 0 99 226" version="1.1" xmlns="http://www.w3.org/2000/svg" xmlns:xlink="http://www.w3.org/1999/xlink">
    <title>Fill 17</title>
    <g id="Page-1" stroke="none" stroke-width="1" fill="none" fill-rule="evenodd">
        <g id="Desktop-HD" transform="translate(0.000000, -846.000000)" fill="#A6FBFD">
            <path d="M-102.500494,887.947651 C-108.290735,887.947651 -113,892.658836 -113,898.447033 L-113,1045.44629 C-113,1051.23449 -108.290735,1055.94765 -102.500494,1055.94765 L44.500494,1055.94765 C50.2887592,1055.94765 55,1051.23449 55,1045.44629 L55,898.447033 C55,892.658836 50.2887592,887.947651 44.500494,887.947651 L-102.500494,887.947651 Z M44.4995509,1070.94765 L-102.499551,1070.94765 C-116.559974,1070.94765 -128,1059.50762 -128,1045.4472 L-128,898.4481 C-128,884.387677 -116.559974,872.947651 -102.499551,872.947651 L44.4995509,872.947651 C58.5599737,872.947651 70,884.387677 70,898.4481 L70,1045.4472 C70,1059.50762 58.5599737,1070.94765 44.4995509,1070.94765 L44.4995509,1070.94765 Z" id="Fill-17" transform="translate(-29.000000, 971.947651) rotate(-33.000000) translate(29.000000, -971.947651) "></path>
        </g>
    </g>
</svg>