<?xml version="1.0" encoding="UTF-8"?>
<svg width="74px" height="130px" viewBox="0 0 74 130" version="1.1" xmlns="http://www.w3.org/2000/svg" xmlns:xlink="http://www.w3.org/1999/xlink">
    <title>Fill 22</title>
    <g id="Page-1" stroke="none" stroke-width="1" fill="none" fill-rule="evenodd">
        <g id="Desktop-HD" transform="translate(-1366.000000, -1190.000000)" fill="#F4D749">
            <path d="M1390.19854,1298.28008 L1390.19854,1230.88805 C1390.19854,1225.44356 1394.64774,1221.03012 1400.13633,1221.03012 L1468.06242,1221.03012 C1470.81961,1221.03012 1473.03528,1218.79684 1473,1216.06574 C1472.97974,1214.64116 1472.96189,1213.21855 1472.94602,1211.79397 C1472.91626,1209.10813 1470.71845,1206.94765 1468.01084,1206.94765 L1400.13633,1206.94765 C1386.8066,1206.94765 1376,1217.66544 1376,1230.88805 L1376,1298.23876 C1376,1300.80851 1378.09269,1302.88831 1380.68524,1302.90602 C1382.26616,1302.91586 1383.85105,1302.92963 1385.43396,1302.94765 C1388.05626,1302.97686 1390.19854,1300.87934 1390.19854,1298.28008" id="Fill-22" transform="translate(1424.500000, 1254.947651) rotate(-33.000000) translate(-1424.500000, -1254.947651) "></path>
        </g>
    </g>
</svg>